<svg width="71" height="35" viewBox="0 0 71 35" fill="none" xmlns="http://www.w3.org/2000/svg">
<path d="M62.5572 0.000215474C63.9873 -0.00258844 65.3945 0.372184 66.6463 1.08925C67.8982 1.80632 68.9536 2.84209 69.7132 4.09905C70.4727 5.35602 70.9114 6.79283 70.9879 8.27421C71.0645 9.7556 70.7764 11.2328 70.1507 12.5668C66.9779 19.2957 62.0481 24.9657 55.9224 28.9316C49.7966 32.8974 42.7208 35 35.5 35C28.2793 35 21.2034 32.8974 15.0777 28.9316C8.95192 24.9657 4.02218 19.2957 0.849331 12.5668C0.22268 11.2307 -0.0653541 9.75095 0.0124403 8.26728C0.0902346 6.7836 0.531286 5.34498 1.29394 4.08727C2.05659 2.82955 3.11568 1.79426 4.37119 1.07914C5.6267 0.364028 7.0372 -0.00730297 8.46948 0.000215474C10.0315 -0.0112188 11.5652 0.432634 12.8959 1.28122C14.2266 2.12981 15.3008 3.34903 15.9963 4.80001C17.7714 8.60832 20.5452 11.8205 23.9995 14.0683C27.4539 16.316 31.449 17.5082 35.5267 17.5082C39.6044 17.5082 43.5995 16.316 47.0538 14.0683C50.5082 11.8205 53.282 8.60832 55.0571 4.80001C55.7505 3.35326 56.8206 2.13686 58.1462 1.28856C59.4717 0.440264 60.9998 -0.00603332 62.5572 0.000215474Z" fill="url(#paint0_linear_1_5)"/>
<defs>
<linearGradient id="paint0_linear_1_5" x1="-11.7109" y1="46.9953" x2="46.9499" y2="5.37005" gradientUnits="userSpaceOnUse">
<stop offset="0.16" stop-color="#FFC600"/>
<stop offset="0.32" stop-color="#FFB000"/>
<stop offset="0.56" stop-color="#FF9700"/>
<stop offset="0.78" stop-color="#FF8700"/>
<stop offset="0.95" stop-color="#FF8200"/>
</linearGradient>
</defs>
</svg>
